# xmcd
#
# Track frame offsets: 
#        150
#        28347
#        51709
#        71611
#        95480
#        136310
#        153913
#        172746
#        188819
#        215823
#        237312
#        258896
#        275303
#        300531
#
# Disc length: 4437 seconds
#
# Revision: 1
# Processed by: cddbd v1.5.2PL0 Copyright (c) Steve Scherf et al.
# Submitted via: ExactAudioCopy v0.99pb4
#
DISCID=c811530e
DTITLE=Bruce Springsteen - Atlantic City, 11-13-05(JerseyBoy matrix-Di
DTITLE=sc 1)
DYEAR=2005
DGENRE=Rock and Roll
TTITLE0=Born In The USA
TTITLE1=Devils and Dust
TTITLE2=Atlantic City
TTITLE3=Long Time Comin'
TTITLE4=Fade Away
TTITLE5=Santa Anna
TTITLE6=Johnny 99
TTITLE7=Open All Night
TTITLE8=Maria's Bed
TTITLE9=Brilliant Disguise
TTITLE10=Reno
TTITLE11=Janey, Don't You Lose Heart
TTITLE12=Lost In The Flood
TTITLE13=Drive All Night
EXTD=
EXTT0=
EXTT1=
EXTT2=
EXTT3=
EXTT4=
EXTT5=
EXTT6=
EXTT7=
EXTT8=
EXTT9=
EXTT10=
EXTT11=
EXTT12=
EXTT13=
PLAYORDER=
